<?xml version="1.0" encoding="UTF-8"?>
<svg id="_圖層_1" data-name="圖層_1" xmlns="http://www.w3.org/2000/svg" version="1.1" viewBox="0 0 600 200">
  <!-- Generator: Adobe Illustrator 29.6.1, SVG Export Plug-In . SVG Version: 2.1.1 Build 9)  -->
  <defs>
    <style>
      .st0 {
        fill: #419A1C;
      }

      .st1 {
        fill: #419A1C;
      }
    </style>
  </defs>
  <g id="g1120">
    <polygon id="polygon1116" class="st1" points="66.84 136.28 66.84 158.08 61.14 158.08 61.14 162.78 77.34 162.78 77.34 158.08 71.64 158.08 71.64 136.28 66.84 136.28"/>
  </g>
  <g id="g1128">
    <polygon id="polygon1124" class="st0" points="87.74 72.78 51.04 72.78 32.64 104.58 51.04 136.48 67.24 136.48 67.24 120.98 46.54 112.68 48.34 108.28 67.24 115.88 67.24 98.58 58.14 92.48 60.74 88.48 67.24 92.88 67.24 85.48 71.94 85.48 71.94 104.88 83.34 98.18 85.74 102.28 71.94 110.48 71.94 120.68 90.24 112.18 92.24 116.48 71.94 125.98 71.94 136.48 87.74 136.48 106.14 104.58 87.74 72.78"/>
  </g>
  <g id="g1136">
    <path id="rect1132" class="st1" d="M98.68,70.56h0c1.39-.84,3.21-.38,4.04,1.01l12.15,20.21c.84,1.39.38,3.21-1.01,4.04h0c-1.39.84-3.21.38-4.04-1.01l-12.15-20.21c-.84-1.39-.38-3.21,1.01-4.04Z"/>
  </g>
  <g id="g1144">
    <path id="rect1140" class="st1" d="M115.08,52.1h0c1.39-.84,3.21-.38,4.04,1.01l19.74,32.85c.84,1.39.38,3.21-1.01,4.04h0c-1.39.84-3.21.38-4.04-1.01l-19.74-32.85c-.84-1.39-.38-3.21,1.01-4.04Z"/>
  </g>
  <g id="g1152">
    <path id="rect1148" class="st1" d="M111.08,68.28h0c1.39-.84,3.21-.38,4.04,1.01l7.59,12.63c.84,1.39.38,3.21-1.01,4.04h0c-1.39.84-3.21.38-4.04-1.01l-7.59-12.63c-.84-1.39-.38-3.21,1.01-4.04Z"/>
  </g>
  <g id="g1160">
    <path id="rect1156" class="st1" d="M126.98,26.05h0c1.39-.84,3.21-.38,4.04,1.01l36.44,60.64c.84,1.39.38,3.21-1.01,4.04h0c-1.39.84-3.21.38-4.04-1.01l-36.44-60.64c-.84-1.39-.38-3.21,1.01-4.04Z"/>
  </g>
  <g id="g1168">
    <path id="rect1164" class="st1" d="M160.08,35.38h0c1.39-.84,3.21-.38,4.04,1.01l10.63,17.69c.84,1.39.38,3.21-1.01,4.04h0c-1.39.84-3.21.38-4.04-1.01l-10.63-17.69c-.84-1.39-.38-3.21,1.01-4.04Z"/>
  </g>
  <g id="g1176">
    <path id="rect1172" class="st1" d="M145.48,33.88h0c1.39-.84,3.21-.38,4.04,1.01l19.74,32.85c.84,1.39.38,3.21-1.01,4.04h0c-1.39.84-3.21.38-4.04-1.01l-19.74-32.85c-.84-1.39-.38-3.21,1.01-4.04Z"/>
  </g>
  <g id="g1184">
    <path id="rect1180" class="st1" d="M115.38,29.6h0c1.39-.84,3.21-.38,4.04,1.01l39.47,65.7c.84,1.39.38,3.21-1.01,4.04h0c-1.39.84-3.21.38-4.04-1.01l-39.47-65.7c-.84-1.39-.38-3.21,1.01-4.04Z"/>
  </g>
  <g>
    <path class="st0" d="M217.69,66.79l2.52-1,2.56-1.08,1.6,3.49,1.82,4.12,1.08,3.67-3.12,1.11-2.6.37-.33-1.56c-.07-.32-.16-.56-.26-.71l-8.87.93-10.39,1-3.64.26-.59-2.08-.78-2.63,2.56-3.08,4.49-5.68,3.45-4.34,2.97,1.08,2.38,1.74-4.38,5.12-3.27,4.16,5.79-.63,8.39-.89-1.37-3.38ZM199.66,78.63l2.89-.07.67-.04v-.07l1.41-.04.82-.07v.04l9.54-.33,7.09.41,1.22.71-.04,7.72-.04,5.16-2.82-.19-2-.07-7.53-.07-4.9.11v.19l-2.93-.15-1.56.04-1.56.15-.11-1.15-.07-5.64-.07-6.61ZM217.21,86.8l.04-3.53-6.53.04-5.2.22c0,.99.01,1.62.04,1.89l.11,1.56,5.31.07,6.23-.26Z"/>
    <path class="st0" d="M233.5,91.47l-.33-2.93-.48-1.93,2.04.33.85-1.11.45-2,.52-4.75,2.75.71,2.23.93-.45,3.6-1.04,4.49-1.22,2.41-1.78,1-2.3-.11-1.22-.63ZM234.61,69.61l3.01,1.3,2.41,1.22-.85,2.75-.89,1.86-3.34-1.82-1.78-.52.3-2.19,1.15-2.6ZM249.79,72.51h.96v-.04h1.93l3.3.11.48.19.04,1.63v1.71l.26-1,.33-1.04,1.3-.07,1.26.3-.41,1.86-.33,1.97-1.41-.22-1.04-.52c0,.3-.01.48-.04.56l-1.19.04c-.07,0-.14-.01-.19-.04-.12,0-.2-.01-.22-.04v.07l-2.04-.11-2.08.07h-.04l-1.6.04v-.85l-.71.41-1.45.3-.26-1.3-.26-.82-.22-.59v1.74l.22,1.41-1,.22-2.23-.15.04-1.63.04-1.74v-.19l-.3,1.45-.37,2.08-1.41-.26-1.41-.56.48-1.6.19-.74.33-1.11,1.3-.07,1.19.26v-1.08l-1.08.26-1.15.33-.67-1.78-.22-1.78,1.19-1.86.78-.78-.04-.04-1.11-.78-.19-.78-.07-1.41v.04l-.45,1.15-1.08,2.08-2.71-1.6-2.45-1.15.63-2.23,1.04-2.34,2.89,1.26,2.52,1.52.04-.11s.07-.12.13-.22c.06-.1.1-.17.13-.22l1.89-1.97,1.41-1.26,1.52,1.22.93,1.34-1.67,1.26-1.22,1.37.3.45,2.12-2.04,1.19,1.45.74,1.82-2.63,1.82c-.05.07-.11.14-.19.19.07-.02.21-.12.41-.3l2.19-.67.56,1.48.41,1.56v-.19l.15-.78,1-.04,2.41-.07h3.41v2.52l-3.08-.07-3.49.11.07.37-.63.26.59-.04ZM245.37,78.52c.1-.02.27-.04.52-.06.25-.01.43-.02.56-.02.32-.02.68-.04,1.08-.04h10.54l3.86.37,1.26.52v1.08l-.11,2.49-.59,2.63-2.26.11-2.6-.19c-4.63,0-7.6-.01-8.91-.04l-1.41.11-.41.74,6.27.04,8.31-.04,2.12.26,1.63,1-.45,2.23-1.04,2.12-1.48.89-2.78.22-2.3-.22-.52-1.19-.71-1.19.78.07,1.78-.04.59-.41-.07-.56-7.5-.19-9.09.19-.59-.78-.67-1.63,1.04-2.52.59-1.71.37.04h6.57c1.06-.02,3.46-.04,7.2-.04l.15-.89-7.38-.07-6.16.19-.41-1.26-.07-1.97v-.15c.32,0,.52-.01.59-.04l1.71-.07ZM245.78,69.24c-.1-.35-.16-.57-.19-.67l-1.11,1.3,1.3-.63ZM246.19,74.25l.63-.37,1.37-.41.48.89.37.78v-.11l-.11-2.41s-.11.09-.19.11l-2.26.52-.15-.89-.15.04v1.86ZM260.96,59.41l1.78,1.11,1.11,1.48-2.26,1.86-.93,1.11.15.15s.07.11.15.19l2.56-2.12,1.45,1.15.78,1.97-3.64,2.41-1.26,1.11.85-.3,1.04-.22c-.12-.32-.2-.56-.22-.71l1.86-.63,1.08-.22.67,2.08.71,2.97-.96.33-2.34.41-.11-.85h-.22s-.07.01-.15.04c-.05,0-.09.01-.11.04l-.04,1.67,1-.52,1.6-.45.56,1,.67,1.37.41,1.3-1.41.78-1.67.33-.33-1.45-.3-.89-.52-1.34c0,1.19.01,1.94.04,2.26l.22,1.41-1.08.22-2.41-.15.07-1.63.04-1.74c0-.87-.01-1.42-.04-1.67-.2.05-.43.09-.71.11l-1.93.37-.56-1.86-.19-2.12,1.15-1.34.78-.74-.71-.78-.56-1.37v-.33l-1.67-.07h-4.3l-2.82.19-.22-1.04-.04-2.04,1.22-.11c.94,0,1.55-.01,1.82-.04-.05-.05-.1-.09-.15-.11l-1.6-.78,1.19-1.48,1.37-.85,1.63.71,1.89,1.3-1,1.19c1.48,0,2.44-.01,2.86-.04v1.74l1.22-1.67,1.37-1.3,1.15-1.41ZM249.31,65.98l3.3-.04,3.9.04.07,1.48-.19,1.22-3.45-.07-3.64.04-.04-.85.04-1.82ZM252.2,75.11v.67h.52c.27,0,.45-.01.52-.04,0-.35.01-.56.04-.63l-.48-.04c-.32,0-.52.01-.59.04Z"/>
    <path class="st0" d="M291.09,60l4.12.19,1.48.82-.67,4.42c-.12.42-.2.73-.22.93l4.3-.04,5.05.33.11,2.75-.3,2.71-5.97-.56h-4.53l-.89,2.86-.45.89c.15-.05.35-.14.59-.26l2.56-.82.85,2.71.22-.48.96-4.38,3.15.85,2.23,1.22-2.26,6.49-1.3,2.26,1,1.56,2.52,3.12,2.15,2.41-2.71,1.86-2.63.96-2.04-2.75-1.52-2.23-2.12,2.78-2,1.78-2.08-1.41-2.04-2.08,2.97-3.04,2.41-3.23-.85-2.12-1.08-3.27-.48.93-2.82-1.11s-.14-.09-.26-.19c-.12-.1-.22-.17-.3-.22l.11,1.56-.04,3.04h-3.08l-.37-.04v.04l-3.64-.15c-1.06,0-1.76.01-2.08.04l2.52.56-.48.71h8.5l.19,2.19-.26,1.34-2.52-.11-.52.85-1.3,1.37,1.41.41,1.89.78-1.56,2.04-1.6,1.15-3.86-1.56-3.04,1.22-3.3.78-1.34-1.04-1.15-1.63,3.27-.89-2.97-.45-1.11-1.71.85-1.22-2.19.15-.11-1.78v-1.56l1.93-.07,2.82-.07.48-.63.19-.78-2.67.07h-.19l-1.89.11-.15-3.93.04-2.3,1.71-.33c.22-.02.71-.04,1.45-.04l.04-.07h2.71c0-.57-.01-.94-.04-1.11l-1.19.07-2.52.15h-1.63l-.19-3.75-1.3.04-.22-1-.04-2.38.85-.07h.56c0-.37-.01-.62-.04-.74l-.04-3.71,1.3-.22h3.23l1.11-.04c0-1.04-.01-1.72-.04-2.04l3.19-.11,1.67.37c-.03.25-.04.83-.04,1.74.42.02,1.37.04,2.86.04l3.04.41.15,1.6v2.41c.17-.02.59-.04,1.26-.04l.11,2.15-.19,1.6-1.19-.04-.07,3.79-2.08-.15-1.45-.11-2.08-.07h-.33v1.19h2.15l3.45.04.63.3,1.37-3.79.89-4.19.96-7.01ZM276.99,78.67l-.04-1.08h-1.22v.59l.04.48h1.22ZM276.84,66.57v-1.19c-.57,0-.93.01-1.08.04l.04,1.15h1.04ZM276.88,69.87l-.96.04.04.93h.96l-.04-.96ZM281.3,85.76h-2.38l-.59.85,1.97.26.67-.56.33-.56ZM281.52,66.57l1.15-.04c0-.54-.01-.89-.04-1.04l-1.15-.04c.02.17.04.54.04,1.11ZM281.56,69.87c0,.5.01.82.04.96l1.04-.04.04-.89-1.11-.04ZM281.74,78.63c.79,0,1.3-.01,1.52-.04v-.26l-.15-.78h-1.41l.04,1.08Z"/>
    <path class="st0" d="M316.7,59.22l2.63,1.45,2.6,1.37-3.08,7.42-1.71,3.71,1.34.37-.11,8.42-.04,6.01.15,3.9-2.82-.3-2.52-.45.15-6.46v-2.23c0-.25,0-.63-.02-1.15-.01-.52-.03-.87-.06-1.04l-1.34,2.45-1.97-1.74-2-1.15,1.97-4.79,2.71-5.57,2.26-5.94,1.86-4.3ZM333.81,72.29l3.08.56,2.78.78-.78,4.68-1,5.79-.37,2.08h1.34l4.08.33-.22,3.19-.45,2.34-3.34-.19-6.16-.26-7.31.07-5.27.22-.48-3.01-.3-2.3,4.75-.04-.59-3.04-1-5.79-.52-4.42,2.86.74,3.08.71.56,4.42.48,3.71.82,3.49,1.82-.04.78-3.49.96-7.46.41-3.08ZM320.11,67.05l6.64-.26c.22-.02.71-.04,1.45-.04l.07-2.56-.07-4.04,3.15.04,2.6.37-.07,3.08c0,1.53.01,2.52.04,2.97l1.15-.04h6.72l.07,3.12-.15,2.78-6.64-.26-7.16.07-7.09.11-.26-2.38-.45-2.97Z"/>
    <path class="st0" d="M353.81,64.05l4.9-.15,2-.07-.07-3.86h2.67l3.08.33-.04,3.27,5.57.11,3.6.3,1.48,1.11.07,5.27-.26,4.97-2.67.07-1.48-.07-5.23-.15-1.15.04.04,2.23h1l6.94.04,3.56.22,1,1.41.07,4.04-.33,5.2-3.04.04-.96-.07-6.38-.15h-1.78l.04,4.53-3.04-.26-2.56-.37c.02-.57.04-1.87.04-3.9h-1l-6.9.15v-.04l-1.26.04h-2.6l-.15-2.15-.15-4.53-.33-3.64,2.75-.3c.92,0,1.51.01,1.78.04,2.7-.07,4.53-.14,5.49-.19,1.26,0,2.08-.01,2.45-.04v-2.23c-.96,0-1.58.01-1.86.04l-2.67.04h-3.04l-2.6.07-.19-2.78-.11-4.68-.04-3.71,2.75-.19h.63v-.04ZM354.44,82.23l.07,2.08h1.97c.67-.02,2.14-.04,4.42-.04,0-1.11.01-1.83.04-2.15v-.07l-4.12.04-2.38.15ZM356.15,68.72l.04,2.26h4.71l-.07-2.45c-1.26,0-2.08.01-2.45.04l-2.23.15ZM371.14,70.88c0-1.24.01-2.04.04-2.41h-4.86v2.49l4.82-.07ZM372.81,84.05c0-1.04.01-1.71.04-2l-4.94-.07h-1.56l.04,2.23,6.42-.15Z"/>
    <path class="st0" d="M385.87,90.99l-.26-3.45-.67-1.67,2.04.37,1.22-.04.89-2.38.74-5.53,2.93,1.11,2.56.63-1,5.08-.89,3.01-1.56,2.71-1.86,1.08-2.6-.26-1.56-.67ZM387.17,69.5l2.49.85,4.34,2.04-1.08,2.56-1.3,2-3.04-1.74-3.15-1.3.93-2.71.82-1.71ZM388.54,61.04l3.79,1.74,2.56,1.48v-.67l5.71-.22,2.3-.04v-1l-.26-2.63,3.93-.15,1.86.19-.15,2.82v.67l9.54-.07.04,2.15-.26,2.89-11.02-.07-3.12.11,1.97.59-3.01,3.93,3.9-.41,3.71-.41-.74-1.82,3.45-1.15,1.41-.22,1.63,3.41,1.74,4.12-1.71.89-3.19.96,2.41.26-.07,5.31.15,2.3.48.85.74.11.67-.19.52-.41,1.45,1.86,1,2.49-1.04.78-2.45.71-3.23-.15-1.78-.67-.96-1.22-.56-1.97-.19-2.15-.19-7.94h2.71l-.56-1.6-7.24.59-7.35.74-1-2.41-.26-1.67,2.41-3.45,1.45-1.93-1.37.04-3.12.22-.33-1.93-.04-1.67-1.04,2.15-1.3,1.63-2.63-1.67-3.64-1.67,1.08-2.56,1.19-1.89ZM396.63,78.59h3.12l2,.33-.26,4.82-.85,5.08-.96,3.41-3.23-.59-2.15-.96,1.48-3.82.48-2.63.37-3.12v-2.52ZM402.87,78.85l2.67-.3,2.45.22-.11,7.64.11,5.53-3.15-.04-2.12-.26.26-6.46-.04-3.6-.07-2.75Z"/>
    <path class="st0" d="M437.38,58.33l3.15,1.48,3.08,1.11-1.86,3.49,12.91-.11.33,2.93-.11,2.45-12.28-.26c-1.86,0-3.04.01-3.56.04l-1.41,2.3h6.68l5.75.11,1.82.67.04,8.61.11,7.98-.15,2.23-1.93.89-4.49.41-.59-2.38-.56-1.67,1.26-.22.3-1.15c-.5,0-.82-.01-.96-.04l-3.79-.04-4.27.04v1.11l-.15,4.16-3.19-.48-2.52-.26.22-3.93.07-6.35.04-1.45-4.34,4.6-2.08-1.82-1.89-2.49,5.12-5.2,3.71-5.34.07-.15-6.9.3-.33-2.45-.3-2.67,6.75-.33h3.56l1.34-2.52,1.34-3.6ZM436.93,83.46h7.31c.82,0,1.35.01,1.6.04v-1.3c-.42-.02-1.35-.04-2.78-.04l-3.19-.04h-2.93v1.34ZM437.04,78.22l1.3.07,7.42-.07v-1.34l-8.68-.07c-.03.22-.04.69-.04,1.41Z"/>
    <path class="st0" d="M462.54,60.56l3.64-.15,3.86.52,2.52,1.19,1.48,3.19.41,3.27-.48,1.56-.93,2.19.33,1.56.85,2.34.11,3.71-1.56,3.12-1.93,1.34-2.93.63-1.37-.19.19,7.57-3.71-.19-2-.48.15-8.61.11-8.16-.11-8.61,3.19.67,2.38.22c0,2.3-.01,4.38-.04,6.23-.03,2.75-.06,4.84-.11,6.27h1.34l.85-1.78-.15-2-.82-.78-.45-1.82.93-2.63.71-2.49-1.11-1.67-2.26-.82-2.6-.11.07-1.97-.56-3.12ZM475.12,60.89l2.67-.07,2.93-.04c1.01-.02,3.43-.09,7.24-.19l3.75.37,1.82,1.19.11,7.27-.22,8.91-2.93.15,1.86,1.3,1.93,1.78-2.49,2.52-1.11.93,2.12,1.52,3.64,2-1.78,2.63-2.08,1.82-4.38-2.82-2.41-2.04.11.67.63,2.08-2.97.78-3.75.74-3.23-.71-1.78-.67.3-5.79-.04-18.81.07-5.53ZM486.58,81.79l1.15-.89,1.93-2.38-.59-.04h-3.86l-4.56.07c0,1.04-.01,1.71-.04,2v1.78l2.56-3.53,3.41,2.97ZM483.58,86.24l-2.97-2.6c0,1.63.01,2.68.04,3.15l1.6-.26,1.34-.3ZM480.68,74.29l2.41.11c1.95-.07,3.35-.14,4.19-.19,0-.3.01-.57.04-.82,0-.4.01-.66.04-.78l-2.82.07h-3.86v1.6ZM480.72,68.39l6.57-.11h.04c-.03-.3-.04-.98-.04-2.04l-2.82-.26-3.75.11v2.3Z"/>
    <path class="st0" d="M508.41,60.6l3.3,1,2.34,1.37-4.04,7.42-3.12,4.9-3.15,3.93-1.93-1.08-2.6-2.41,3.12-4.04,3.53-5.53,2.56-5.57ZM512.56,71.28l3.56,1.19,1.89,1.11-4.01,7.57-2.45,4.6,4.49-.82,3.86-.89-1-3.27,2.38-1.08,2.82-.41,2.23,5.79,1.93,5.86-2.26.82-3.75.63-.85-3.15-2.49.45-5.46,1.04-7.12,1.15-1.6-1.71-.96-2.52,1.78-3.01,3.71-6.64,3.3-6.72ZM521.62,60.37l2.93,4.38,2.23,3.45,3.19,3.82,3.19,3.49-2.23,2.45-2.67,1.45-2.82-3.27-3.93-5.49-2.67-4.04-1.93-3.53,2.12-1.71,2.6-1Z"/>
    <path class="st0" d="M538.8,61.67l12.88-.07,12.73.11,2.15.15,1.63,1.26-.19,10.28v8.57l.19,9.02-1.3.89-3.04.59h-3.97l-.22-2.3-1.41-1.89,2.04-.33,1.45-.48.04-10.06-.11-5.23-.22-5.01-7.57-.41-11.65.22-2.78.19-.52-2.78-.11-2.71ZM540.36,69.84l5.86-.15,5.94-.04,5.86-.07.07,2.56-.15,2.67-5.83-.22-6.38.04-5.23.19-.15-2.56v-2.41ZM542.69,77.07l6.53-.15,7.05.11,1.48.85-.04,6.2-.22,4.19-2.89.04-1.15-.11-3.86.04-5.2.19-.93.07h-.96l-.63.04h-1.11l-.07-1.08-.3-3.9.04-6.31,2.26-.07v-.11ZM551.9,84.16v-2.49l-3.67-.04c-.5.05-1.22.09-2.19.11,0,1.09.01,1.79.04,2.12l.04.45,3.79-.04,2-.11Z"/>
  </g>
  <g>
    <path class="st0" d="M210.92,122.82l7.41.2,9.95-.41-.51,3.96-3.76-.3-2.44.1-.1,2.13.3,6.6.41,5.08-2.54-.2-2.23.1.2-1.73.1-5.89-.2-5.79-6.4.2v-1.42l-.2-2.64Z"/>
    <path class="st0" d="M236.84,127.69l.08-.96,3.38.74-.15,1.57.25,4.49,1.22,6.25-3.38.36-.79-1.5-2.49,1.29-4.54-.15-2.64-2.56-.36-4.93,2.82-3.94,3.17-1.07,3.43.41ZM232.6,131.1l-1.62,1.75.03,2.39,1.62,1.37,2.79-.81,1.35-.99-.1-3.3-2.26-.66-1.8.25Z"/>
    <path class="st0" d="M243.42,124.95l-.91-1.12-.2-1.83,3.05-1.02,2.34,1.22-.1,1.83-1.42,1.02-2.74-.1ZM242.81,127.29l2.03.1,2.23-.51-.3,5.89.41,6.09.41,1.12-2.74-.41-2.13.3.3-4.27v-5.48l-.2-2.84Z"/>
    <path class="st0" d="M251.7,126.17l1.93,7.41,2.03-5.69,1.22-.2,2.44-.81,2.54,6.6,2.95-7.92,1.62,1.02,2.23.71-2.44,5.48-2.64,7.11-2.84.3-2.84-7.41-2.54,7.21-2.95.41-2.44-6.2-2.23-6.09,2.03-1.22,1.93-.71Z"/>
    <path class="st0" d="M277.57,127.69l.08-.96,3.38.74-.15,1.57.25,4.49,1.22,6.25-3.38.36-.79-1.5-2.49,1.29-4.54-.15-2.64-2.56-.36-4.93,2.82-3.94,3.17-1.07,3.43.41ZM273.33,131.1l-1.62,1.75.03,2.39,1.62,1.37,2.79-.81,1.35-.99-.1-3.3-2.26-.66-1.8.25Z"/>
    <path class="st0" d="M283.03,127.39l2.23-.3,1.83-.3-.03.69,1.29-.48,2.89-.2,3.05.91,1.32,3.76-.2,5.79.51,1.93-1.73.41-2.54.3.1-2.54.1-4.04-.3-2.13-1.22-.63-1.75-.05-1.6.74-.1,3.07.51,5.38-2.74.2-1.73.2.3-5.28-.1-4.57-.1-2.84Z"/>
    <path class="st0" d="M306.03,122.79l4.14-.74,5.56.23,3.22,1.5,2.51,1.98.66,3.68-.18,3.94-.94,2.64-2.06,2.03-3.12,1.32-4.75.43-5.13-.23.08-3.91.1-5.33-.1-7.54ZM310.43,126.17l-.13,3.45.05,3.61-.05,3,2.51-.1,2.41-.41,1.8-1.22,1.17-3.35-.58-3.05-2.41-2.03-2.74-.1-2.03.2Z"/>
    <path class="st0" d="M324.44,124.95l-.91-1.12-.2-1.83,3.05-1.02,2.34,1.22-.1,1.83-1.42,1.02-2.74-.1ZM323.83,127.29l2.03.1,2.23-.51-.3,5.89.41,6.09.41,1.12-2.74-.41-2.13.3.3-4.27v-5.48l-.2-2.84Z"/>
    <path class="st0" d="M342.09,130.74l-.38,2.34.48,4.85-.38,3.43-1.04,1.32-2.44,1.14-3.33.51-4.37-1.14-.71-3.02,1.35-2.46,3.22,1.4-.84.86,1.17.94,2.06-.1,1.45-.89.38-1.19-.18-1.07-.89.28-3.15.3-3.78-1.45-.69-6.45,1.62-2.72,4.16-.91,3.3.51.71.48,1.45-.58,2.11-.1v1.7l.46,1.4-1.75.23v.41ZM334.98,130.08l-1.7,1.88.38,2.64,3.33.63,1.52-1.5v-3.02l-3.53-.63Z"/>
    <path class="st0" d="M345.24,124.95l-.91-1.12-.2-1.83,3.05-1.02,2.34,1.22-.1,1.83-1.42,1.02-2.74-.1ZM344.63,127.29l2.03.1,2.23-.51-.3,5.89.41,6.09.41,1.12-2.74-.41-2.13.3.3-4.27v-5.48l-.2-2.84Z"/>
    <path class="st0" d="M356.54,123.02l-.3,2.44-.08,1.57,1.09-.05,2.03-.2-.1,1.52.3,1.42-3.05.2-.43.03-.08,1.6.41,4.37,1.22.71,2.03-.51.1.91,1.02,1.83-.81.71-3.76.61-2.54-.91-1.32-2.34.2-6.5v-.18l-2.13.18-.1-1.93-.2-1.32h2.34l-.1-3.05,2.03-.61,2.23-.51Z"/>
    <path class="st0" d="M369.71,127.69l.08-.96,3.38.74-.15,1.57.25,4.49,1.22,6.25-3.38.36-.79-1.5-2.49,1.29-4.54-.15-2.64-2.56-.36-4.93,2.82-3.94,3.17-1.07,3.43.41ZM365.47,131.1l-1.62,1.75.03,2.39,1.62,1.37,2.79-.81,1.35-.99-.1-3.3-2.26-.66-1.8.25Z"/>
    <path class="st0" d="M375.58,122.31l1.93-.71,2.03-1.42v9.85l.3,8.84.3,1.32-2.64.2-2.03.41.3-9.65-.1-6.3-.1-2.54Z"/>
    <path class="st0" d="M406.2,123.63l-.76,3.78-3.58-1.27-3.53-.71-2.67.3-1.14,2.06,2.26,1.9,3.94.71,2.95.96,2.51,2.18v3.28l-3.07,2.49-4.52.96-5.28-.56-2.11-.61.33-2.39-.1-1.47,1.75.2,3.94.76,2.82.1,1.85-.76-.71-1.4-4.49-1.4-4.52-1.5-1.65-3.28,1.42-4.27,4.42-1.8,4.82.41,5.13,1.29Z"/>
    <path class="st0" d="M413,123.02l-.3,2.44-.08,1.68h1.52l3.55-.05,2.21-.1,1.32-.2-.05,1.37,1.75-.79,2.49-.3,3.05.91.63,2.03-2.46,2.26-2.06-1.85-3.48.94-.15,1.96.48,5.87.1.69-2.31.18h-2.26l.1-1.09-.71.63-3.76.61-2.54-.91-1.32-2.34.2-6.5v-.18l-2.13.18-.1-1.93-.2-1.32h2.34l-.1-3.05,2.03-.61,2.23-.51ZM417.07,138.92l.38-4.57-.05-3.91-.08-.38-4.39-.03-.46.03-.08,1.5.41,4.37,1.22.71,1.93-.48.2.89.91,1.88Z"/>
    <path class="st0" d="M441.54,134.09l-3.96.66-2.54.2-1.93.43,1.22.84,2.03.41,4.67-.41.1,1.32.41,2.03-2.74.51-3.86.2-2.44-.91-2.13-1.57-1.52-3.35.51-3.88,2.34-3.15,3.96-1.17,4.47,1.17,1.52,3.05.1,2.72-.2.91ZM438.09,131.5l-.1-.94-2.54-.53-2.44.84-.3,1.04,3.45-.1,1.93-.3Z"/>
    <path class="st0" d="M452.08,127.69l.08-.96,3.38.74-.15,1.57.25,4.49,1.22,6.25-3.38.36-.79-1.5-2.49,1.29-4.54-.15-2.64-2.56-.36-4.93,2.82-3.94,3.17-1.07,3.43.41ZM447.84,131.1l-1.62,1.75.03,2.39,1.62,1.37,2.79-.81,1.35-.99-.1-3.3-2.26-.66-1.8.25Z"/>
    <path class="st0" d="M457.23,127.59l1.93-.41,2.34-.3-.03.89,1.65-.58,3.66.2,2.18.48,1.98-.58,2.13-.3,2.54.61,2.03,4.06-.1,5.28-.2,3.05-1.52-.2-2.13-.41.15-4.44-.25-3.33-1.62-1.17-2.13.63v1.7l.1,6.4-1.83.1-2.34.71.3-3.35-.1-4.57-1.93-1.73-2.69.48-.05,1.65.2,5.48.51,1.73-2.54.2-2.13-.1.41-5.28-.1-4.77-.41-2.13Z"/>
    <path class="st0" d="M480.19,124.95l-.91-1.12-.2-1.83,3.05-1.02,2.34,1.22-.1,1.83-1.42,1.02-2.74-.1ZM479.58,127.29l2.03.1,2.23-.51-.3,5.89.41,6.09.41,1.12-2.74-.41-2.13.3.3-4.27v-5.48l-.2-2.84Z"/>
    <path class="st0" d="M486.03,127.39l2.23-.3,1.83-.3-.03.69,1.29-.48,2.89-.2,3.05.91,1.32,3.76-.2,5.79.51,1.93-1.73.41-2.54.3.1-2.54.1-4.04-.3-2.13-1.22-.63-1.75-.05-1.6.74-.1,3.07.51,5.38-2.74.2-1.73.2.3-5.28-.1-4.57-.1-2.84Z"/>
    <path class="st0" d="M512.18,130.74l-.38,2.34.48,4.85-.38,3.43-1.04,1.32-2.44,1.14-3.33.51-4.37-1.14-.71-3.02,1.35-2.46,3.22,1.4-.84.86,1.17.94,2.06-.1,1.45-.89.38-1.19-.18-1.07-.89.28-3.15.3-3.78-1.45-.69-6.45,1.62-2.72,4.16-.91,3.3.51.71.48,1.45-.58,2.11-.1v1.7l.46,1.4-1.75.23v.41ZM505.07,130.08l-1.7,1.88.38,2.64,3.33.63,1.52-1.5v-3.02l-3.53-.63Z"/>
    <path class="st0" d="M538.23,124.04l-.81,1.32-1.12,1.8-1.42-.89-2.08-.3-1.85-.13-2.41,1.07-1.42,2.95.66,3.55,2.03,2.18,2.21.99,2.95-.43,2.26-1.09.91,1.6.91,1.22-1.32,1.12-1.6.61-3.99.48-3.81-.53-3.12-2.36-2.11-4.52v-3.81l1.52-3.86,3.53-2.18,4.7-.89,4.06,1.09,1.32,1.02Z"/>
    <path class="st0" d="M547.12,140.08l-2.77-.41-2.51-1.19-1.75-2.26-.56-2.49.15-1.93,1.09-2.56,2.69-1.98,3.33-.71,3.45.84,2.74,2.16,1.12,3.35-.41,2.64-1.07,2.23-2.67,1.8-2.84.51ZM545.72,130.03l-1.98,1.35-.71,1.75.3,1.88,1.52,1.29,1.96.43,1.98-.56,1.37-1.27.08-2.21-.94-1.52-1.68-1.04-1.9-.1Z"/>
    <path class="st0" d="M555.29,137.24l1.12-1.22,2.23-.51,1.73,1.62-.2,1.62-1.02,1.22-2.74.2-1.12-1.42v-1.52Z"/>
  </g>
</svg>