<?xml version="1.0" encoding="UTF-8"?>
<svg id="_圖層_1" data-name="圖層_1" xmlns="http://www.w3.org/2000/svg" version="1.1" viewBox="0 0 512 512">
  <!-- Generator: Adobe Illustrator 29.6.1, SVG Export Plug-In . SVG Version: 2.1.1 Build 9)  -->
  <defs>
    <style>
      .st0 {
        fill: #fff;
      }

      .st1 {
        fill: #459437;
      }
    </style>
  </defs>
  <circle class="st0" cx="256" cy="256" r="256"/>
  <g id="g1120">
    <polygon id="polygon1116" class="st1" points="156.68 369.05 156.68 427.34 141.44 427.34 141.44 439.91 184.76 439.91 184.76 427.34 169.52 427.34 169.52 369.05 156.68 369.05"/>
  </g>
  <g id="g1128">
    <polygon id="polygon1124" class="st1" points="212.57 199.26 114.44 199.26 65.24 284.29 114.44 369.58 157.75 369.58 157.75 328.14 102.41 305.95 107.22 294.18 157.75 314.5 157.75 268.24 133.42 251.93 140.37 241.24 157.75 253 157.75 233.22 170.32 233.22 170.32 285.09 200.8 267.18 207.22 278.14 170.32 300.06 170.32 327.34 219.25 304.61 224.6 316.11 170.32 341.51 170.32 369.58 212.57 369.58 261.77 284.29 212.57 199.26"/>
  </g>
  <g id="g1136">
    <path id="rect1132" class="st1" d="M241.82,193.33h0c3.72-2.23,8.58-1.02,10.82,2.7l32.48,54.05c2.23,3.72,1.02,8.58-2.7,10.82h0c-3.72,2.23-8.58,1.02-10.82-2.7l-32.48-54.05c-2.23-3.72-1.02-8.58,2.7-10.82Z"/>
  </g>
  <g id="g1144">
    <path id="rect1140" class="st1" d="M285.67,143.97h0c3.72-2.23,8.58-1.02,10.82,2.7l52.77,87.83c2.23,3.72,1.02,8.58-2.7,10.82h0c-3.72,2.23-8.58,1.02-10.82-2.7l-52.77-87.83c-2.23-3.72-1.02-8.58,2.7-10.82Z"/>
  </g>
  <g id="g1152">
    <path id="rect1148" class="st1" d="M274.97,187.24h0c3.72-2.23,8.58-1.02,10.82,2.7l20.3,33.78c2.23,3.72,1.02,8.58-2.7,10.82h0c-3.72,2.23-8.58,1.02-10.82-2.7l-20.3-33.78c-2.23-3.72-1.02-8.58,2.7-10.82Z"/>
  </g>
  <g id="g1160">
    <path id="rect1156" class="st1" d="M317.49,74.32h0c3.72-2.23,8.58-1.02,10.82,2.7l97.43,162.15c2.23,3.72,1.02,8.58-2.7,10.82h0c-3.72,2.23-8.58,1.02-10.82-2.7l-97.43-162.15c-2.23-3.72-1.02-8.58,2.7-10.82Z"/>
  </g>
  <g id="g1168">
    <path id="rect1164" class="st1" d="M405.99,99.27h0c3.72-2.23,8.58-1.02,10.82,2.7l28.42,47.29c2.23,3.72,1.02,8.58-2.7,10.82h0c-3.72,2.23-8.58,1.02-10.82-2.7l-28.42-47.29c-2.23-3.72-1.02-8.58,2.7-10.82Z"/>
  </g>
  <g id="g1176">
    <path id="rect1172" class="st1" d="M366.96,95.26h0c3.72-2.23,8.58-1.02,10.82,2.7l52.77,87.83c2.23,3.72,1.02,8.58-2.7,10.82h0c-3.72,2.23-8.58,1.02-10.82-2.7l-52.77-87.83c-2.23-3.72-1.02-8.58,2.7-10.82Z"/>
  </g>
  <g id="g1184">
    <path id="rect1180" class="st1" d="M286.47,83.81h0c3.72-2.23,8.58-1.02,10.82,2.7l105.55,175.66c2.23,3.72,1.02,8.58-2.7,10.82h0c-3.72,2.23-8.58,1.02-10.82-2.7l-105.55-175.66c-2.23-3.72-1.02-8.58,2.7-10.82Z"/>
  </g>
</svg>